<svg width="23" height="22" viewBox="0 0 23 22" fill="none" xmlns="http://www.w3.org/2000/svg">
<path d="M15.6499 1.77157C16.8696 1.77507 18.0384 2.24289 18.9009 3.07285C19.7634 3.9028 20.2495 5.02746 20.2532 6.20119V15.0595C20.2495 16.2332 19.7634 17.3579 18.9009 18.1878C18.0384 19.0178 16.8696 19.4856 15.6499 19.4891H6.4443C5.22456 19.4856 4.05581 19.0178 3.19331 18.1878C2.33082 17.3579 1.84466 16.2332 1.84102 15.0595V6.20119C1.84466 5.02746 2.33082 3.9028 3.19331 3.07285C4.05581 2.24289 5.22456 1.77507 6.4443 1.77157H15.6499ZM15.6499 0H6.4443C2.89986 0 0 2.79047 0 6.20119V15.0595C0 18.4702 2.89986 21.2607 6.4443 21.2607H15.6499C19.1943 21.2607 22.0942 18.4702 22.0942 15.0595V6.20119C22.0942 2.79047 19.1943 0 15.6499 0Z" fill="#0E0F10"/>
<path d="M17.0307 6.20153C16.7575 6.20153 16.4906 6.1236 16.2635 5.97759C16.0364 5.83158 15.8594 5.62405 15.7549 5.38125C15.6504 5.13844 15.623 4.87126 15.6763 4.6135C15.7296 4.35574 15.8611 4.11898 16.0542 3.93314C16.2473 3.74731 16.4934 3.62075 16.7613 3.56948C17.0291 3.51821 17.3068 3.54452 17.5591 3.64509C17.8114 3.74567 18.0271 3.91598 18.1788 4.1345C18.3306 4.35302 18.4115 4.60993 18.4115 4.87274C18.4119 5.04734 18.3765 5.2203 18.3072 5.38169C18.238 5.54308 18.1363 5.68971 18.008 5.81317C17.8797 5.93664 17.7273 6.0345 17.5596 6.10115C17.3919 6.16779 17.2121 6.20191 17.0307 6.20153ZM11.047 7.08708C11.7753 7.08708 12.4873 7.29491 13.0929 7.68428C13.6985 8.07366 14.1705 8.6271 14.4492 9.2746C14.7279 9.92211 14.8008 10.6346 14.6588 11.322C14.5167 12.0094 14.1659 12.6408 13.6509 13.1364C13.1359 13.632 12.4798 13.9695 11.7654 14.1062C11.0511 14.2429 10.3106 14.1728 9.63774 13.9045C8.96485 13.6363 8.38972 13.1821 7.98508 12.5994C7.58043 12.0167 7.36446 11.3315 7.36446 10.6307C7.3655 9.69117 7.75382 8.79042 8.4442 8.12609C9.13458 7.46175 10.0706 7.08808 11.047 7.08708ZM11.047 5.31551C9.95453 5.31551 8.88661 5.62724 7.97827 6.21128C7.06993 6.79532 6.36196 7.62543 5.94389 8.59666C5.52583 9.56788 5.41645 10.6366 5.62957 11.6676C5.8427 12.6987 6.36877 13.6457 7.14125 14.3891C7.91373 15.1324 8.89793 15.6386 9.9694 15.8437C11.0409 16.0488 12.1515 15.9436 13.1608 15.5413C14.1701 15.139 15.0327 14.4577 15.6396 13.5836C16.2466 12.7096 16.5705 11.6819 16.5705 10.6307C16.5705 9.22101 15.9886 7.86908 14.9527 6.87229C13.9169 5.8755 12.5119 5.31551 11.047 5.31551Z" fill="#0E0F10"/>
</svg>
